<svg width="47" height="36" viewBox="0 0 47 36" fill="none" xmlns="http://www.w3.org/2000/svg">
<path d="M44.9857 14.4H2.01429C0.161143 14.4 0 16.0092 0 18C0 19.9908 0.161143 21.6 2.01429 21.6H44.9857C46.8389 21.6 47 19.9908 47 18C47 16.0092 46.8389 14.4 44.9857 14.4ZM44.9857 28.8H2.01429C0.161143 28.8 0 30.4092 0 32.4C0 34.3908 0.161143 36 2.01429 36H44.9857C46.8389 36 47 34.3908 47 32.4C47 30.4092 46.8389 28.8 44.9857 28.8ZM2.01429 7.2H44.9857C46.8389 7.2 47 5.5908 47 3.6C47 1.6092 46.8389 0 44.9857 0H2.01429C0.161143 0 0 1.6092 0 3.6C0 5.5908 0.161143 7.2 2.01429 7.2Z" fill="#5C5B5B"/>
</svg>
